<?xml version="1.0" encoding="UTF-8" standalone="no"?>
<svg
   xmlns:dc="http://purl.org/dc/elements/1.1/"
   xmlns:cc="http://creativecommons.org/ns#"
   xmlns:rdf="http://www.w3.org/1999/02/22-rdf-syntax-ns#"
   xmlns:svg="http://www.w3.org/2000/svg"
   xmlns="http://www.w3.org/2000/svg"
   width="172.26125"
   height="101.00677"
   viewBox="0 0 45.577454 26.724713"
   version="1.1"
   id="svg8">
  <defs
     id="defs2">
    <filter
       style="color-interpolation-filters:sRGB"
       id="filter909"
       x="-0.0018711009"
       width="1.0037422"
       y="-0.0042994297"
       height="1.0085989">
      <feGaussianBlur
         stdDeviation="0.019762675"
         id="feGaussianBlur911" />
    </filter>
  </defs>
  <metadata
     id="metadata5">
    <rdf:RDF>
      <cc:Work
         rdf:about="">
        <dc:format>image/svg+xml</dc:format>
        <dc:type
           rdf:resource="http://purl.org/dc/dcmitype/StillImage" />
        <dc:title></dc:title>
      </cc:Work>
    </rdf:RDF>
  </metadata>
  <path
     id="path3481"
     style="fill:#3b1f2b;fill-opacity:1;fill-rule:evenodd;stroke:none;stroke-width:0.35277772"
     d="m 7.0361644,7.5855664 c -3.8855957,0 -7.03616544,1.007797 -7.03616544,2.2515387 0,0.054383 0.00599497,0.1079095 0.01841312,0.1622924 L 1.688653,24.473177 c 0,1.243742 2.3943474,2.251539 5.3475114,2.251539 2.9540205,0 5.3485816,-1.007797 5.3477256,-2.251539 l 0.183917,-1.59145 c 0.03511,0.0058 0.07044,0.0098 0.105554,0.01413 1.1232,0.126323 2.18538,-0.380466 2.958945,-1.207772 0.772709,-0.827091 1.296412,-1.981337 1.443503,-3.290167 0.147947,-1.309686 -0.106197,-2.551715 -0.675719,-3.529323 -0.570378,-0.978464 -1.492961,-1.70878 -2.616161,-1.835745 -0.02676,-0.0026 -0.05267,-0.0051 -0.07858,-0.0077 L 14.0734,9.8371051 C 14.072544,8.5933634 10.922831,7.5855664 7.0361644,7.5855664 Z m 6.5077516,6.8398306 c 0.02762,0.0015 0.05524,0.0032 0.08286,0.0066 0.614699,0.06851 1.160027,0.462469 1.557193,1.144825 0.397381,0.681713 0.609774,1.635127 0.493515,2.66305 -0.115404,1.027923 -0.534409,1.91111 -1.073956,2.48727 -0.538477,0.576373 -1.157457,0.839723 -1.773012,0.770353 -0.0334,-0.0043 -0.06766,-0.0092 -0.101272,-0.0152 z" />
  <path
     d="m 7.0361644,7.5855664 c -3.8855957,0 -7.03616544,1.007797 -7.03616544,2.2515387 0,0.054383 0.00599497,0.1079095 0.01841312,0.1622924 L 1.688653,24.473177 c 0,1.243742 2.3943474,2.251539 5.3475114,2.251539 2.9540205,0 5.3485816,-1.007797 5.3477256,-2.251539 l 0.183917,-1.59145 c 0.03511,0.0058 0.07044,0.0098 0.105554,0.01413 1.1232,0.126323 2.18538,-0.380466 2.958945,-1.207772 0.772709,-0.827091 1.296412,-1.981337 1.443503,-3.290167 0.147947,-1.309686 -0.106197,-2.551715 -0.675719,-3.529323 -0.570378,-0.978464 -1.492961,-1.70878 -2.616161,-1.835745 -0.02676,-0.0026 -0.05267,-0.0051 -0.07858,-0.0077 L 14.0734,9.8371051 C 14.072544,8.5933634 10.922831,7.5855664 7.0361644,7.5855664 Z m 0,0.3605546 c 3.2644746,0 5.9106106,0.846361 5.9106106,1.8909841 8.56e-4,1.0446229 -2.645494,1.8918409 -5.9106106,1.8918409 -3.26426,0 -5.9112525,-0.847218 -5.9103961,-1.8918409 0,-1.0446231 2.6461361,-1.8909841 5.9103961,-1.8909841 z m 1.2394597,5.96221 c 0.2569272,-0.02505 0.065302,0.58301 0.2083251,0.757935 0.2644209,-0.01691 0.4500508,0.08928 0.5862222,0.240869 0.081146,0.162078 0.3464235,0.09785 0.3922422,0.261638 0.039395,0.148803 -0.090139,0.373829 -0.214106,0.517708 -0.1085517,0.133816 -0.2691312,0.176423 -0.3502774,0.322872 -0.1254661,0.283476 0.042607,0.622192 0.053527,0.918301 -0.0167,0.315378 0.028476,0.658161 -0.1723553,0.935 -0.030189,0.206613 -0.2316627,0.323729 -0.3027459,0.517709 -0.1640052,0.279408 -0.4232876,0.763716 -0.4132246,1.076525 0.00343,0.490088 0.199975,1.057041 0.2794084,1.532999 0.1864863,0.0668 0.573804,-0.0728 0.5177083,0.147091 -0.2475066,0.423287 -1.7079236,0.449194 -1.9888307,0.475957 -0.583867,-0.0075 -1.1850767,-0.01092 -1.7513871,-0.164861 -0.3344335,-0.139598 -0.3913857,0.102128 -0.3085267,0.383035 0.079433,0.153086 0.1905543,0.281978 0.3404285,0.384749 0.2550003,0.121398 0.5226328,0.255214 0.821953,0.264421 0.3228718,0.06509 0.59393,0.03918 0.9343586,0.0024 0.2074687,-0.108552 1.0855174,-0.09785 0.6172676,0.152229 C 6.5771212,23.061362 4.9319307,22.851538 4.5054315,22.199157 4.3238696,21.970064 4.233731,21.655542 4.2688444,21.374635 4.3048144,21.047481 4.5816533,20.834232 4.5054315,20.460403 4.4677485,19.669281 4.1943355,18.940678 4.4377735,18.268385 4.695343,17.305765 5.56183,17.10579 6.1915158,16.661734 c 0.1505165,-0.0394 0.2618516,-0.135529 0.3622673,-0.250076 0.1177583,-0.08457 0.2207433,-0.188199 0.3001766,-0.289471 0.091209,-0.255 0.043464,-0.575303 0.1881992,-0.827948 0.1004157,-0.162292 0.1856299,-0.342142 0.331222,-0.475101 0.6590183,-0.171285 0.6046353,-0.791122 0.8446482,-0.896462 0.020982,-0.0075 0.040038,-0.01263 0.057595,-0.01434 z m 5.2682919,0.517066 c 0.02762,0.0015 0.05524,0.0032 0.08286,0.0066 0.614699,0.06851 1.160027,0.462469 1.557193,1.144825 0.397381,0.681713 0.609774,1.635127 0.493515,2.66305 -0.115404,1.027923 -0.534409,1.91111 -1.073956,2.48727 -0.538477,0.576373 -1.157457,0.839723 -1.773012,0.770353 -0.0334,-0.0043 -0.06766,-0.0092 -0.101272,-0.0152 z"
     style="fill:#ab224d;fill-opacity:1;fill-rule:evenodd;stroke:none;stroke-width:0.35277772"
     id="path882" />
  <path
     d="m 2.7868027,4.974e-6 c 0,0 -0.2517887,0.346209406 -0.5044338,0.790265246 C 2.0290815,1.2351825 1.7597362,1.7620974 1.7597362,2.2446923 c 0,0.4825949 0.2918265,0.8572804 0.5369778,1.1942832 0.2449373,0.3361465 0.4440559,0.6356808 0.4440559,0.9065249 0,0.2719146 -0.2207433,0.7962602 -0.458401,1.2135528 -0.2383,0.418149 -0.4757435,0.7453029 -0.4757435,0.7453029 l 0.393955,0.2860457 c 0,0 0.252431,-0.3462094 0.5050761,-0.7904794 0.2526451,-0.4440558 0.5217763,-0.9709707 0.5217763,-1.454422 0,-0.482595 -0.2918265,-0.8572805 -0.5367637,-1.1934269 -0.2451514,-0.3370028 -0.44427,-0.6356807 -0.44427,-0.9073812 0,-0.2719146 0.2218138,-0.7954038 0.4592574,-1.2135528 C 2.9431,0.61384688 3.1807577,0.28669291 3.1807577,0.28669291 Z m 4.1031273,0 c 0,0 -0.2517886,0.346209406 -0.5052901,0.790265246 C 6.1322089,1.2351825 5.8628636,1.7620974 5.8628636,2.2446923 c 0,0.4825949 0.2918264,0.8572804 0.5369778,1.1942832 0.2449373,0.3361465 0.4440558,0.6356808 0.4440558,0.9065249 0,0.2719146 -0.2215997,0.7962602 -0.4592573,1.2135528 -0.2374436,0.418149 -0.4748871,0.7453029 -0.4748871,0.7453029 l 0.393955,0.2860457 c 0,0 0.2515746,-0.3462094 0.5042196,-0.7904794 0.2535015,-0.4440558 0.5226328,-0.9709707 0.5226328,-1.454422 0,-0.482595 -0.2918265,-0.8572805 -0.5367638,-1.1934269 C 6.5486451,2.8150707 6.3495265,2.5163928 6.3495265,2.2446923 c 0,-0.2719146 0.2209574,-0.7954038 0.4584009,-1.2135528 0.2383,-0.41729262 0.4759577,-0.74444659 0.4759577,-0.74444659 z m 4.103127,0 c 0,0 -0.252645,0.346209406 -0.505076,0.790265246 C 10.235336,1.2351825 9.9659909,1.7620974 9.9659909,2.2446923 c 0,0.4825949 0.2918261,0.8572804 0.5369781,1.1942832 0.244937,0.3361465 0.443199,0.6356808 0.443199,0.9065249 0,0.2719146 -0.220743,0.7962602 -0.458187,1.2135528 -0.237657,0.418149 -0.475101,0.7453029 -0.475101,0.7453029 l 0.393099,0.2860457 c 0,0 0.252431,-0.3462094 0.505076,-0.7904794 0.252645,-0.4440558 0.52199,-0.9709707 0.52199,-1.454422 0,-0.482595 -0.291184,-0.8572805 -0.536121,-1.1934269 -0.246008,-0.3370028 -0.44427,-0.6356807 -0.44427,-0.9073812 0,-0.2719146 0.220957,-0.7954038 0.458401,-1.2135528 0.237443,-0.41729262 0.475957,-0.74444659 0.475957,-0.74444659 z"
     style="fill:#ab224d;fill-opacity:1;fill-rule:evenodd;stroke:none;stroke-width:0.35277772"
     id="path884">
    <animate
       attributeName="opacity"
       values="0 ; 1 ; 0"
       dur="15s"
       repeatCount="indefinite" />
  </path>
  <g
     aria-label="Mugcat"
     transform="matrix(0.95809667,0,0,0.67081327,-45.750466,-76.46836)"
     style="font-style:normal;font-variant:normal;font-weight:normal;font-stretch:normal;font-size:1.71993852px;line-height:1.25;font-family:Calibri;-inkscape-font-specification:Calibri;text-align:center;letter-spacing:0px;word-spacing:0px;text-anchor:middle;fill:#ae1f4c;fill-opacity:1;stroke:#ae1f4c;stroke-width:0.18710516;stroke-miterlimit:4;stroke-dasharray:none;stroke-opacity:1;"
     id="text4529-3">
    <path
       d="m 73.466525,131.23474 q 0.04031,-0.22171 0.329207,-0.22171 0.04703,0 0.107496,0.0672 0.06047,0.0672 0.06047,0.12093 -0.04703,0.92044 -0.04703,1.76697 0,0.84653 0.107496,2.92255 0.114215,2.07602 0.114215,2.78818 0,0.71216 -0.01344,0.88685 -0.01344,0.16796 0.03359,0.60466 0.04703,0.43671 0.04703,1.10184 0,0.66513 -0.201556,0.75919 v -0.0403 l -0.05375,0.0537 -0.262021,-0.1075 v -0.0403 q 0,-0.0873 0.04031,-0.16796 l -0.05375,-0.12094 q 0.02688,-0.81966 0.02688,-1.25636 l -0.100778,-4.52156 0.02687,-1.54525 q 0,-0.23515 -0.02687,-0.65842 -0.02016,-0.42326 -0.02687,-0.56435 -0.02687,0.0269 -0.02687,0.0941 -0.04031,0.89356 -0.389674,2.71428 -0.221711,1.40416 -0.571073,2.55975 -0.02016,0.0739 -0.0739,0.20155 -0.120933,0.2889 -0.120933,0.44342 l 0.04031,0.0672 q -0.01344,0.047 -0.06047,0.35608 -0.107497,0.67857 -0.376237,0.67857 -0.302333,0 -0.322488,-1.06824 0,-0.17468 -0.04031,-0.45014 -0.03359,-0.28218 -0.611384,-2.99646 -0.571073,-2.72099 -0.651695,-2.83521 -0.05375,1.24293 -0.05375,2.78146 l 0.04031,4.37375 0.06718,1.31011 q 0,0.24859 -0.107496,0.35608 -0.389674,0 -0.389674,-0.71888 l 0.0739,-2.29773 -0.05375,-2.78818 0.04031,-3.26519 q 0,-0.78607 -0.01344,-1.18246 l 0.262021,-0.14781 q 0.322489,0.0403 1.209332,4.40062 0.1814,0.91372 0.282178,1.35043 0.100777,0.4367 0.141088,0.62482 0.04031,0.1814 0.08734,0.4367 0.107496,0.51733 0.107496,0.75247 0.08062,-0.20827 0.262022,-1.13543 l 0.194837,-0.96746 q 0.08062,-0.38967 0.369518,-1.97524 0.295614,-1.59229 0.389673,-2.02899 0.194837,-0.89356 0.214993,-1.40417 z m -2.57319,3.65487 h 0.01344 z"
       style="font-style:normal;font-variant:normal;font-weight:normal;font-stretch:normal;font-size:13.75950813px;font-family:'Amatic SC';-inkscape-font-specification:'Amatic SC';fill:#ae1f4c;fill-opacity:1;stroke:#ae1f4c;stroke-width:0.18710516;stroke-miterlimit:4;stroke-dasharray:none;stroke-opacity:1"
       id="path901" />
    <path
       d="m 78.458377,135.49428 0.01344,0.27546 q -0.02687,0.34936 -0.04031,0.94059 -0.0067,0.59123 -0.02016,1.12199 -0.0067,0.53076 -0.03359,1.14887 -0.02687,0.6181 -0.107496,1.10855 -0.188118,1.16902 -0.611384,1.55869 -0.456859,0.42999 -1.068243,0.0873 -0.262022,-0.1478 -0.443422,-0.36951 -0.174681,-0.22171 -0.282177,-1.42433 -0.107497,-1.20933 -0.127652,-2.54631 -0.06047,-4.01767 -0.127652,-4.58203 l 0.08734,-0.19483 q 0.31577,0.0403 0.31577,0.75919 l 0.04031,3.64815 0.147807,2.91583 q 0,1.56542 1.034651,1.56542 0.638258,0 0.806221,-2.88225 0.01344,-0.19483 0.06047,-1.86102 0.05375,-1.66619 0.05375,-4.01767 l -0.02687,-0.24859 q 0,-0.15452 0.194837,-0.15452 0.201555,0 0.235148,0.0941 0.04031,0.0873 0.04031,0.81294 0,0.71888 -0.08734,1.06152 0.01344,0.0269 0.01344,0.0873 0,0 -0.06718,1.09512 z"
       style="font-style:normal;font-variant:normal;font-weight:normal;font-stretch:normal;font-size:13.75950813px;font-family:'Amatic SC';-inkscape-font-specification:'Amatic SC';fill:#ae1f4c;fill-opacity:1;stroke:#ae1f4c;stroke-width:0.18710516;stroke-miterlimit:4;stroke-dasharray:none;stroke-opacity:1"
       id="path903" />
    <path
       d="m 83.127742,138.94759 0.05375,2.10962 q -0.712162,0.71216 -1.404169,0.71216 -0.913717,0 -1.202613,-0.37624 -0.282178,-0.37624 -0.45014,-1.74681 -0.161244,-1.37058 -0.161244,-1.94837 0,-0.58451 0.06718,-1.28323 0.06719,-0.69873 0.107496,-1.33027 0.04031,-0.63826 0.141088,-1.06824 0.329207,-1.4512 1.558695,-1.4512 0.423266,0 0.423266,0.19484 0,0.0941 -0.09406,0.15452 -0.08734,0.0538 -0.1814,0.0538 l -0.262022,-0.0269 q -0.463577,0 -0.725599,0.59122 -0.282177,0.65842 -0.356081,1.21605 -0.06718,0.55764 -0.100778,0.88685 -0.03359,0.3292 -0.04703,0.75247 -0.02016,0.63826 -0.02016,1.18918 0,0.55092 0.04031,0.88012 0.107496,0.16796 0.141089,0.55092 0.03359,0.37624 0.05375,0.75919 0.02687,0.38296 0.107496,0.75919 0.08734,0.37624 0.3628,0.61139 0.275459,0.23515 0.752473,0.23515 0.826377,0 0.826377,-2.19696 v -1.00777 q -0.141089,-0.14109 -0.483733,-0.14109 l -0.262022,0.0134 q -0.329207,0 -0.329207,-0.16124 0,-0.23515 0.329207,-0.23515 1.269798,0 1.269798,0.27546 z"
       style="font-style:normal;font-variant:normal;font-weight:normal;font-stretch:normal;font-size:13.75950813px;font-family:'Amatic SC';-inkscape-font-specification:'Amatic SC';fill:#ae1f4c;fill-opacity:1;stroke:#ae1f4c;stroke-width:0.18710516;stroke-miterlimit:4;stroke-dasharray:none;stroke-opacity:1"
       id="path905" />
    <path
       d="m 85.136576,136.1191 -0.05375,2.77475 q 0,1.1623 0.221711,1.66619 0.255303,0.59122 0.651695,0.76591 0.255303,0.11421 0.517325,0.11421 0.268741,0 0.409829,-0.12093 0.208274,0 0.208274,0.1478 0,0.1075 -0.188118,0.23515 -0.1814,0.13437 -0.335926,0.19484 H 86.11076 q -0.08734,-0.047 -0.322489,-0.12093 -0.235148,-0.0739 -0.436703,-0.215 -0.194837,-0.1478 -0.369518,-0.47701 -0.174681,-0.33593 -0.248585,-0.77935 -0.120933,-0.7256 -0.120933,-1.62588 v -1.57213 q 0,-1.83415 0.13437,-2.51272 0.268741,-1.3773 0.732318,-1.7401 0.120933,-0.0941 0.369518,-0.18811 0.255303,-0.10078 0.349362,-0.15453 h 0.550918 q 0.01344,0 0.03359,0.007 0.02687,0.007 0.04031,0.0134 0.01344,0 0.03359,0.007 0.02687,0.007 0.03359,0.0134 0.01344,0 0.03359,0.0134 0.02016,0.007 0.02687,0.0134 0.06047,0.0605 0.06047,0.14108 l -0.1814,0.20156 h -0.577792 q -0.282177,0 -0.490451,0.26874 -0.208274,0.26202 -0.322488,0.62482 -0.107496,0.3628 -0.174682,0.83982 -0.100777,0.71888 -0.100777,1.39073 z"
       style="font-style:normal;font-variant:normal;font-weight:normal;font-stretch:normal;font-size:13.75950813px;font-family:'Amatic SC';-inkscape-font-specification:'Amatic SC';fill:#ae1f4c;fill-opacity:1;stroke:#ae1f4c;stroke-width:0.18710516;stroke-miterlimit:4;stroke-dasharray:none;stroke-opacity:1"
       id="path907" />
    <path
       d="m 90.141866,139.62616 -0.362799,0.0134 q -0.194837,-0.0806 -0.429985,-0.0806 -0.235148,0 -0.255303,0.0134 -0.02016,0.0134 -0.02687,0.047 -0.0067,0.0336 -0.01344,0.047 l -0.02687,0.27546 q -0.02687,0.34937 -0.127652,0.83982 -0.188118,0.96074 -0.396392,0.96074 -0.08734,0 -0.1814,-0.0739 -0.09406,-0.0739 -0.09406,-0.16124 0.174681,-0.51733 0.3628,-1.56542 0.188118,-1.04808 0.235147,-1.30339 0.04703,-0.26202 0.174682,-1.04809 0.127651,-0.78606 0.167962,-1.03465 0.04031,-0.24858 0.214993,-1.07496 0.1814,-0.82637 0.214992,-1.08168 0.04031,-0.2553 0.08734,-0.692 0.114214,-1.07497 0.181399,-1.1959 l 0.188119,0.0134 q 0.167962,0 0.248585,-0.0806 0.08734,0 0.167962,0.0605 0.08062,0.0538 0.08062,0.14781 0,0.65841 0.167963,2.54631 0.167963,1.88791 0.262022,2.44554 0.100778,0.55092 0.228429,1.0884 0.127652,0.53076 0.127652,0.81294 l -0.06718,0.18812 q 0,0.30905 0.114215,0.91372 0.114214,0.59794 0.114214,0.84653 0,0.24186 -0.107496,0.30233 -0.282177,0 -0.349362,-0.0806 -0.06047,-0.0806 -0.06047,-0.2553 0,-0.1814 -0.02687,-0.43671 -0.02016,-0.26202 -0.04703,-0.41654 -0.02016,-0.15453 -0.08062,-0.48374 -0.05375,-0.33592 -0.06718,-0.42998 -0.262022,-0.0672 -0.618103,-0.0672 z m -0.967465,-0.67857 q 0,0.14109 0.329207,0.23515 0.503888,0.14109 1.115273,0.14109 h 0.141088 q -0.08734,-0.26874 -0.08734,-0.6181 v -0.31577 q 0,-0.85325 -0.214993,-2.48585 -0.208273,-1.6326 -0.221711,-2.4321 -0.71888,3.55409 -0.893561,4.3939 -0.167963,0.8331 -0.167963,1.08168 z"
       style="font-style:normal;font-variant:normal;font-weight:normal;font-stretch:normal;font-size:13.75950813px;font-family:'Amatic SC';-inkscape-font-specification:'Amatic SC';fill:#ae1f4c;fill-opacity:1;stroke:#ae1f4c;stroke-width:0.18710516;stroke-miterlimit:4;stroke-dasharray:none;stroke-opacity:1"
       id="path909" />
    <path
       d="m 94.972475,133.04874 -0.745755,-0.0941 -0.06718,0.0806 0.02687,0.0537 q -0.02687,0.0538 -0.02687,0.78607 0,0.73232 0.22843,3.42644 0.228429,2.6874 0.228429,4.0311 0,0.10078 -0.08062,0.1814 -0.08062,0.0806 -0.1814,0.0806 l -0.154526,-0.11422 -0.02687,-1.00106 0.02687,-0.48373 q 0,-0.18812 -0.05375,-0.32921 0,-1.16902 -0.167962,-3.40628 -0.161245,-2.23726 -0.174682,-3.30551 -1.08168,0 -1.155583,-0.26202 0.06047,-0.15453 0.262021,-0.15453 l 1.867746,0.12766 0.248585,-0.0134 q 0.248585,0 0.248585,0.17468 0,0.0941 -0.100778,0.16125 -0.100777,0.0605 -0.201555,0.0605 z"
       style="font-style:normal;font-variant:normal;font-weight:normal;font-stretch:normal;font-size:13.75950813px;font-family:'Amatic SC';-inkscape-font-specification:'Amatic SC';fill:#ae1f4c;fill-opacity:1;stroke:#ae1f4c;stroke-width:0.18710516;stroke-miterlimit:4;stroke-dasharray:none;stroke-opacity:1"
       id="path911" />
  </g>
</svg>
