<?xml version="1.0" encoding="UTF-8"?>
<svg width="128" height="128" version="1.1" viewBox="0 0 33.9 33.9" xmlns="http://www.w3.org/2000/svg">
    <g transform="translate(6.28 -.305)" fill-rule="evenodd">
        <path d="m8.76 10c-4.84 0-8.76 1.25-8.76 2.8 0 0.0677 0.00746 0.134 0.0229 0.202l2.08 18c0 1.55 2.98 2.8 6.65 2.8 3.68 0 6.66-1.25 6.65-2.8l0.229-1.98c0.0437 0.0072 0.0877 0.0122 0.131 0.0176 1.4 0.157 2.72-0.473 3.68-1.5 0.962-1.03 1.61-2.47 1.8-4.09 0.184-1.63-0.132-3.18-0.841-4.39-0.71-1.22-1.86-2.13-3.26-2.28-0.0333-0.0032-0.0655-0.0063-0.0978-0.0096l0.458-3.97c-0.0011-1.55-3.92-2.8-8.76-2.8zm8.1 8.51c0.0344 0.0019 0.0687 4e-3 0.103 0.0082 0.765 0.0852 1.44 0.576 1.94 1.42 0.495 0.848 0.759 2.03 0.614 3.31-0.144 1.28-0.665 2.38-1.34 3.1-0.67 0.717-1.44 1.04-2.21 0.959-0.0416-0.0054-0.0842-0.0114-0.126-0.0189z" fill="#3b1f2b"/>
        <path d="m8.76 10c-4.84 0-8.76 1.25-8.76 2.8 0 0.0677 0.00746 0.134 0.0229 0.202l2.08 18c0 1.55 2.98 2.8 6.65 2.8 3.68 0 6.66-1.25 6.65-2.8l0.229-1.98c0.0437 0.0072 0.0877 0.0122 0.131 0.0176 1.4 0.157 2.72-0.473 3.68-1.5 0.962-1.03 1.61-2.47 1.8-4.09 0.184-1.63-0.132-3.18-0.841-4.39-0.71-1.22-1.86-2.13-3.26-2.28-0.0333-0.0032-0.0655-0.0063-0.0978-0.0096l0.458-3.97c-0.0011-1.55-3.92-2.8-8.76-2.8zm0 0.449c4.06 0 7.36 1.05 7.36 2.35 0.0011 1.3-3.29 2.35-7.36 2.35-4.06 0-7.36-1.05-7.35-2.35 0-1.3 3.29-2.35 7.35-2.35zm1.54 7.42c0.32-0.0312 0.0813 0.726 0.259 0.943 0.329-0.021 0.56 0.111 0.73 0.3 0.101 0.202 0.431 0.122 0.488 0.326 0.049 0.185-0.112 0.465-0.266 0.644-0.135 0.167-0.335 0.22-0.436 0.402-0.156 0.353 0.053 0.774 0.0666 1.14-0.0208 0.392 0.0354 0.819-0.214 1.16-0.0376 0.257-0.288 0.403-0.377 0.644-0.204 0.348-0.527 0.95-0.514 1.34 0.0043 0.61 0.249 1.32 0.348 1.91 0.232 0.0831 0.714-0.0906 0.644 0.183-0.308 0.527-2.13 0.559-2.47 0.592-0.727-0.0093-1.47-0.0136-2.18-0.205-0.416-0.174-0.487 0.127-0.384 0.477 0.0988 0.191 0.237 0.351 0.424 0.479 0.317 0.151 0.65 0.318 1.02 0.329 0.402 0.081 0.739 0.0488 1.16 3e-3 0.258-0.135 1.35-0.122 0.768 0.189-1.18 0.531-3.23 0.27-3.76-0.542-0.226-0.285-0.338-0.676-0.294-1.03 0.0448-0.407 0.389-0.672 0.294-1.14-0.0469-0.984-0.387-1.89-0.0842-2.73 0.321-1.2 1.4-1.45 2.18-2 0.187-0.049 0.326-0.169 0.451-0.311 0.147-0.105 0.275-0.234 0.374-0.36 0.114-0.317 0.0541-0.716 0.234-1.03 0.125-0.202 0.231-0.426 0.412-0.591 0.82-0.213 0.752-0.984 1.05-1.12 0.0261-0.0093 0.0498-0.0157 0.0717-0.0178zm6.56 0.643c0.0344 0.0019 0.0687 4e-3 0.103 0.0082 0.765 0.0852 1.44 0.576 1.94 1.42 0.495 0.848 0.759 2.03 0.614 3.31-0.144 1.28-0.665 2.38-1.34 3.1-0.67 0.717-1.44 1.04-2.21 0.959-0.0416-0.0054-0.0842-0.0114-0.126-0.0189z" fill="#ab224d"/>
        <path d="m3.47 0.61s-0.313 0.431-0.628 0.983c-0.315 0.554-0.65 1.21-0.65 1.81 0 0.601 0.363 1.07 0.668 1.49 0.305 0.418 0.553 0.791 0.553 1.13 0 0.338-0.275 0.991-0.57 1.51-0.297 0.52-0.592 0.927-0.592 0.927l0.49 0.356s0.314-0.431 0.629-0.984c0.314-0.553 0.649-1.21 0.649-1.81 0-0.601-0.363-1.07-0.668-1.49-0.305-0.419-0.553-0.791-0.553-1.13 0-0.338 0.276-0.99 0.572-1.51 0.295-0.519 0.591-0.926 0.591-0.926zm5.11 0s-0.313 0.431-0.629 0.983c-0.314 0.554-0.649 1.21-0.649 1.81 0 0.601 0.363 1.07 0.668 1.49 0.305 0.418 0.553 0.791 0.553 1.13 0 0.338-0.276 0.991-0.572 1.51-0.295 0.52-0.591 0.927-0.591 0.927l0.49 0.356s0.313-0.431 0.627-0.984c0.315-0.553 0.65-1.21 0.65-1.81 0-0.601-0.363-1.07-0.668-1.49-0.305-0.419-0.553-0.791-0.553-1.13 0-0.338 0.275-0.99 0.57-1.51 0.297-0.519 0.592-0.926 0.592-0.926zm5.11 0s-0.314 0.431-0.629 0.983c-0.314 0.554-0.65 1.21-0.65 1.81 0 0.601 0.363 1.07 0.668 1.49 0.305 0.418 0.552 0.791 0.552 1.13 0 0.338-0.275 0.991-0.57 1.51-0.296 0.52-0.591 0.927-0.591 0.927l0.489 0.356s0.314-0.431 0.629-0.984c0.314-0.553 0.65-1.21 0.65-1.81 0-0.601-0.362-1.07-0.667-1.49-0.306-0.419-0.553-0.791-0.553-1.13 0-0.338 0.275-0.99 0.57-1.51 0.295-0.519 0.592-0.926 0.592-0.926z" fill="#ab224d" stroke-width=".353">
            <animate attributeName="opacity" dur="15s" repeatCount="indefinite" values="0 ; 1 ; 0"/>
        </path>
    </g>
</svg>
